<svg id="SvgjsSvg1001" width="288" height="288" xmlns="http://www.w3.org/2000/svg" version="1.1" xmlns:xlink="http://www.w3.org/1999/xlink" xmlns:svgjs="http://svgjs.com/svgjs"><defs id="SvgjsDefs1002"></defs><g id="SvgjsG1008"><svg xmlns="http://www.w3.org/2000/svg" viewBox="0 0 64 64" width="288" height="288"><path fill="#131e5c" d="M60,34H56a1,1,0,0,0-1,1v3H52V28a1,1,0,0,0-1-1H47.51l-4.7-6.58A1,1,0,0,0,42,20H35V17h3a1,1,0,0,0,1-1V12a1,1,0,0,0-1-1H26a1,1,0,0,0-1,1v4a1,1,0,0,0,1,1h3v3H24a1,1,0,0,0-.81.42L18.49,27H13a1,1,0,0,0-1,1V38H9V35a1,1,0,0,0-1-1H4a1,1,0,0,0-1,1V47a1,1,0,0,0,1,1H8a1,1,0,0,0,1-1V44h3v5a1,1,0,0,0,1,1H24.59l2.7,2.71A1,1,0,0,0,28,53H48a1,1,0,0,0,.71-.29l3-3A1,1,0,0,0,52,49V44h3v3a1,1,0,0,0,1,1h4a1,1,0,0,0,1-1V35A1,1,0,0,0,60,34Z" class="svgShape color756f90-0 selectable"></path><path fill="#ffffff" d="M35.91,36.58A1,1,0,0,0,35,36H31.13l3.64-4.36a1,1,0,0,0-1.54-1.28l-5,6A1,1,0,0,0,29,38h3.87l-3.64,4.36a1,1,0,0,0,.13,1.41A1,1,0,0,0,30,44a1,1,0,0,0,.77-.36l5-6A1,1,0,0,0,35.91,36.58Z" class="svgShape colorfff265-1 selectable"></path><path fill="#ffffff" d="M60,48H56a1,1,0,0,1-1-1V43a1,1,0,0,1,2,0v3h2V36H57v3a1,1,0,0,1-2,0V35a1,1,0,0,1,1-1h4a1,1,0,0,1,1,1V47A1,1,0,0,1,60,48Z" class="svgShape color231f20-2 selectable"></path><path fill="#ffffff" d="M56 40H51a1 1 0 0 1 0-2h5a1 1 0 0 1 0 2zM56 44H51a1 1 0 0 1 0-2h5a1 1 0 0 1 0 2zM13 40H8a1 1 0 0 1 0-2h5a1 1 0 0 1 0 2zM13 44H8a1 1 0 0 1 0-2h5a1 1 0 0 1 0 2zM38 17H34a1 1 0 0 1 0-2h3V13H27v2h3a1 1 0 0 1 0 2H26a1 1 0 0 1-1-1V12a1 1 0 0 1 1-1H38a1 1 0 0 1 1 1v4A1 1 0 0 1 38 17z" class="svgShape color231f20-3 selectable"></path><path fill="#ffffff" d="M30 22a1 1 0 0 1-1-1V16a1 1 0 0 1 2 0v5A1 1 0 0 1 30 22zM34 22a1 1 0 0 1-1-1V16a1 1 0 0 1 2 0v5A1 1 0 0 1 34 22zM8 48H4a1 1 0 0 1-1-1V35a1 1 0 0 1 1-1H8a1 1 0 0 1 1 1v4a1 1 0 0 1-2 0V36H5V46H7V43a1 1 0 0 1 2 0v4A1 1 0 0 1 8 48z" class="svgShape color231f20-4 selectable"></path><path fill="#ffffff" d="M13 40a1 1 0 0 1-1-1V28a1 1 0 0 1 1-1h5.49l4.7-6.58A1 1 0 0 1 24 20h6a1 1 0 0 1 0 2H24.51l-4.7 6.58A1 1 0 0 1 19 29H14V39A1 1 0 0 1 13 40zM51 40a1 1 0 0 1-1-1V29H47a1 1 0 0 1-.81-.42L41.49 22H34a1 1 0 0 1 0-2h8a1 1 0 0 1 .81.42L47.51 27H51a1 1 0 0 1 1 1V39A1 1 0 0 1 51 40zM48 53H28a1 1 0 0 1-.71-.29L24.59 50H13a1 1 0 0 1-1-1V43a1 1 0 0 1 2 0v5H25a1 1 0 0 1 .71.29L28.41 51H47.59L50 48.59V43a1 1 0 0 1 2 0v6a1 1 0 0 1-.29.71l-3 3A1 1 0 0 1 48 53z" class="svgShape color231f20-5 selectable"></path><path fill="#ffffff" d="M30,44a1,1,0,0,1-.64-.23,1,1,0,0,1-.13-1.41L32.87,38H29a1,1,0,0,1-.77-1.64l5-6a1,1,0,0,1,1.54,1.28L31.13,36H35a1,1,0,0,1,.77,1.64l-5,6A1,1,0,0,1,30,44Z" class="svgShape color231f20-6 selectable"></path></svg></g></svg>