<svg xmlns="http://www.w3.org/2000/svg" id="manager" enable-background="new 0 0 64 64" viewBox="0 0 64 64">
  <path fill="#c2c4c2" d="M26.2,62.9L37.4,63l2.1-6.1c1.6-0.5,3.1-1.1,4.5-1.8l5.8,2.9l8-7.9l-2.8-5.8c0.8-1.4,1.4-2.9,1.9-4.5l6.1-2
		L63,26.6l-6.1-2.1c-0.5-1.6-1.1-3.1-1.8-4.5l2.9-5.8l-7.9-8l-5.8,2.8c-1.4-0.8-2.9-1.4-4.5-1.9l-2-6.1L26.6,1l-2.1,6.1
		C23,7.5,21.4,8.2,20,8.9L14.3,6l-8,7.9l2.8,5.8c-0.8,1.4-1.4,2.9-1.9,4.5l-6.1,2L1,37.4l6.1,2.1C7.5,41,8.2,42.6,8.9,44L6,49.7
		l7.9,8l5.8-2.8c1.4,0.8,2.9,1.4,4.5,1.9L26.2,62.9z"></path>
  <path fill="#e3e3e3" d="M52.8,32c0,6.6-3.1,12.5-7.8,16.3c-0.5,0.4-1,0.8-1.5,1.1c-0.1,0.1-0.2,0.1-0.3,0.2
		c-3.2,2.1-7.1,3.3-11.2,3.3c-4.1,0-8-1.2-11.2-3.3c-0.1-0.1-0.2-0.1-0.3-0.2c-0.5-0.3-1-0.7-1.5-1.1c-4.8-3.8-7.8-9.7-7.8-16.3
		c0-11.5,9.3-20.8,20.8-20.8C43.5,11.2,52.8,20.5,52.8,32z"></path>
  <path fill="#f9f9f9" d="M50,32c0,5.7-2.6,10.8-6.8,14.1c-0.4,0.3-0.8,0.7-1.3,1c-0.1,0.1-0.2,0.1-0.2,0.1C38.9,49,35.6,50,32,50
		c-3.6,0-6.9-1-9.7-2.8c-0.1-0.1-0.2-0.1-0.3-0.2c-0.4-0.3-0.9-0.6-1.3-0.9C16.7,42.8,14,37.7,14,32c0-9.9,8-18,18-18
		C41.9,14,50,22.1,50,32z"></path>
  <path fill="#193651" d="M32,10.2C20,10.2,10.2,20,10.2,32c0,6.7,3,12.9,8.2,17c0.5,0.4,1,0.8,1.6,1.2l0.1,0.1c0.1,0,0.2,0.1,0.2,0.1
		c3.5,2.3,7.6,3.4,11.8,3.4c4.2,0,8.2-1.2,11.7-3.4c0.1,0,0.2-0.1,0.3-0.2l0.1-0.1c0.5-0.3,1.1-0.8,1.6-1.2c5.2-4.2,8.2-10.4,8.2-17
		C53.8,20,44,10.2,32,10.2z M42.7,48.7c-3.2,2.1-6.9,3.1-10.7,3.1c-3.8,0-7.5-1.1-10.8-3.2c-0.1,0-0.1,0-0.1-0.1L21,48.6
		c-0.5-0.3-0.9-0.7-1.4-1c-4.8-3.8-7.5-9.5-7.5-15.5c0-11,8.9-19.9,19.9-19.9S51.9,21,51.9,32c0,6.1-2.7,11.7-7.5,15.5
		c-0.5,0.4-0.9,0.7-1.4,1L42.7,48.7z"></path>
  <path fill="#e5dbb3" d="M37.8,27.6c0,3.2-2.6,5.8-5.8,5.8c-3.2,0-5.8-2.6-5.8-5.8c0-3.2,2.6-5.8,5.8-5.8
		C35.2,21.8,37.8,24.4,37.8,27.6z"></path>
  <path fill="#f9efc5" d="M36,27.6c0,2.2-1.8,4-4,4c-2.2,0-4-1.8-4-4c0-2.2,1.8-4,4-4C34.2,23.6,36,25.4,36,27.6z"></path>
  <path fill="#193651" d="M32,20.8c-3.7,0-6.8,3-6.8,6.8s3,6.8,6.8,6.8s6.8-3,6.8-6.8S35.7,20.8,32,20.8z M32,32.4
		c-2.7,0-4.9-2.2-4.9-4.9s2.2-4.9,4.9-4.9c2.7,0,4.8,2.2,4.8,4.9S34.7,32.4,32,32.4z"></path>
  <path fill="#f49898" d="M45.1,48C45,48,45,48,45.1,48c-0.5,0.4-1,0.8-1.5,1.1c0,0-0.1,0-0.1,0.1c-0.1,0-0.1,0.1-0.2,0.1
		c-3.2,2.1-7.1,3.3-11.2,3.3c-4.1,0-8-1.2-11.2-3.3c-0.1,0-0.1-0.1-0.2-0.1c0,0-0.1-0.1-0.1-0.1c-0.5-0.3-1-0.7-1.5-1.1c0,0,0,0,0,0
		l5.4-10.7c0-0.5,0.5-0.7,0.7-0.4c1.1,1.3,3.8,2.7,6.9,2.7c3.1,0,5.8-1.3,6.9-2.7c0.3-0.3,0.7-0.1,0.7,0.4L45.1,48z"></path>
  <path fill="#dd8787" d="M45.1,48.1C45,48.1,45,48.1,45.1,48.1c-0.5,0.4-1,0.8-1.5,1.1c0,0-0.1,0-0.1,0.1c-0.1,0-0.1,0.1-0.2,0.1
		c-3.2,2.1-7.1,3.3-11.3,3.3c-4.1,0-8-1.2-11.2-3.3c-0.1,0-0.1-0.1-0.2-0.1c0,0-0.1-0.1-0.1-0.1c-0.5-0.3-1-0.7-1.4-1.1
		c0,0,0,0-0.1,0l1.2-2.4c0.1,0.1,0.2,0.1,0.3,0.2c0,0,0.1,0,0.1,0.1c0.1,0,0.1,0.1,0.2,0.1c3.3,2.1,7.1,3.3,11.2,3.3
		c4.2,0,8-1.2,11.3-3.3c0.1,0,0.1-0.1,0.2-0.1c0,0,0.1,0,0.1-0.1c0.1-0.1,0.2-0.1,0.3-0.2L45.1,48.1z"></path>
  <path fill="#193651" d="M32,53.6c-4.2,0-8.3-1.2-11.8-3.4l-0.1-0.1c0,0-0.1-0.1-0.1-0.1c-0.6-0.4-1.1-0.8-1.6-1.2l0,0
		c-0.1,0-0.1-0.1-0.2-0.2c-0.3-0.3-0.3-0.7-0.1-1.1L23.4,37c0.1-0.6,0.5-1,1-1.1c0.5-0.2,1.1,0,1.4,0.5c1,1.2,3.4,2.3,6.1,2.3
		c2.8,0,5.2-1.2,6.1-2.3c0.4-0.4,0.9-0.6,1.4-0.5c0.5,0.2,0.9,0.6,1,1.1l5.4,10.5c0.2,0.4,0.1,0.8-0.2,1.1c0,0-0.1,0.1-0.1,0.1
		c-0.5,0.4-1,0.8-1.6,1.2c0,0,0,0,0,0c0,0-0.1,0-0.1,0.1c-0.1,0-0.2,0.1-0.2,0.1C40.3,52.4,36.2,53.6,32,53.6z M21.1,48.4
		C21.1,48.4,21.2,48.4,21.1,48.4c0.1,0.1,0.2,0.1,0.2,0.1c3.2,2,6.9,3.1,10.7,3.1c3.8,0,7.5-1.1,10.7-3.1c0,0,0.1,0,0.1-0.1
		c0,0,0.1,0,0.1-0.1c0,0,0.1,0,0.1-0.1c0.3-0.2,0.5-0.4,0.8-0.6L39,38.2c-1.4,1.3-4,2.4-7,2.4c-3,0-5.6-1.1-7-2.4l-4.8,9.5
		c0.3,0.2,0.5,0.4,0.8,0.6C21,48.3,21.1,48.4,21.1,48.4z M24.4,37.5C24.4,37.6,24.4,37.6,24.4,37.5C24.4,37.6,24.4,37.6,24.4,37.5z
		 M39.6,37.5C39.6,37.5,39.6,37.5,39.6,37.5C39.6,37.5,39.6,37.5,39.6,37.5z"></path>
  <path fill="#a3a3a3" d="M5.2,37.8C4.8,35.9,4.6,34,4.6,32c0-2.1,0.3-4.2,0.7-6.2c0.1-0.4,0.2-0.8,0.3-1.1c0.1-0.4,0.2-0.8,0.3-1.1
		l-5.8,1.9c0,0.1-0.1,0.2-0.1,0.4L0,37.7c0,0.1,0,0.2,0.1,0.4l5.7,2c-0.1-0.4-0.2-0.8-0.3-1.1C5.4,38.5,5.3,38.2,5.2,37.8z
		 M18.1,55.7c-0.3-0.2-0.7-0.4-1-0.6c-3.4-2.2-6.3-5.1-8.4-8.6c-0.2-0.3-0.4-0.6-0.6-1v0c-0.2-0.3-0.4-0.7-0.6-1l-2.7,5.4
		C4.9,50,5,50,5,50.1l8.4,8.5c0.1,0.1,0.2,0.1,0.3,0.2l5.4-2.7C18.8,56,18.5,55.9,18.1,55.7z M14.1,4.8C14,4.9,13.9,5,13.8,5.1
		l-8.5,8.4c-0.1,0.1-0.2,0.2-0.2,0.3l2.6,5.4c0.2-0.4,0.4-0.7,0.6-1v0c0.2-0.3,0.4-0.7,0.6-1c2.2-3.4,5.1-6.3,8.6-8.4
		c0.3-0.2,0.6-0.4,1-0.6c0.3-0.2,0.7-0.4,1-0.6L14.1,4.8z M38.9,58.5c-0.4,0.1-0.7,0.2-1.1,0.3c-1.9,0.4-3.8,0.6-5.8,0.6
		c-2.1,0-4.2-0.3-6.2-0.7c-0.4-0.1-0.8-0.2-1.1-0.3c-0.4-0.1-0.8-0.2-1.1-0.3l1.9,5.8c0.1,0,0.2,0,0.4,0.1L37.7,64
		c0.1,0,0.3,0,0.4-0.1l2-5.7C39.7,58.3,39.3,58.4,38.9,58.5z M38.6,0.2c-0.1,0-0.3-0.1-0.4-0.1L26.3,0c-0.1,0-0.2,0.1-0.4,0.1
		l-2,5.7c0.4-0.1,0.8-0.2,1.1-0.3c0.4-0.1,0.7-0.2,1.1-0.3C28.1,4.8,30,4.6,32,4.6c2.2,0,4.2,0.3,6.2,0.7c0.4,0.1,0.8,0.2,1.1,0.3
		c0.4,0.1,0.8,0.2,1.1,0.3L38.6,0.2z M56.2,44.8c-0.2,0.3-0.4,0.7-0.6,1c-0.2,0.3-0.4,0.6-0.6,1c-2.2,3.4-5.1,6.3-8.6,8.4
		c-0.3,0.2-0.6,0.4-1,0.6c-0.3,0.2-0.7,0.4-1,0.6l5.4,2.8c0.1-0.1,0.2-0.1,0.3-0.2l8.5-8.4c0.1-0.1,0.1-0.2,0.2-0.3L56.2,44.8z
		 M58.9,13.8l-8.3-8.5c-0.1-0.1-0.2-0.2-0.3-0.2l-5.5,2.7c0.3,0.2,0.7,0.4,1,0.6c0.3,0.2,0.7,0.4,1,0.6c3.4,2.2,6.3,5.1,8.5,8.6
		c0.2,0.3,0.4,0.6,0.6,1c0.2,0.3,0.4,0.7,0.6,1l2.7-5.4C59.1,14,59,13.9,58.9,13.8z M63.9,25.9l-5.7-2c0.1,0.4,0.2,0.7,0.3,1.1v0
		c0.1,0.4,0.2,0.7,0.3,1.1c0.4,1.9,0.6,3.8,0.6,5.8c0,2.1-0.3,4.2-0.7,6.2c-0.1,0.4-0.2,0.8-0.3,1.1c-0.1,0.4-0.2,0.8-0.3,1.1
		l5.8-1.9c0-0.1,0-0.3,0.1-0.4L64,26.3C64,26.2,64,26,63.9,25.9z"></path>
  <path fill="#193651" d="M63.9,25.9l-5.7-2l-0.5-0.2c-0.4-1.3-0.9-2.5-1.5-3.8l0.2-0.5l2.7-5.4l0-0.1l-0.3-0.3l-8.3-8.5l-0.3-0.3
		l-0.1,0l-5.5,2.7L44.4,8c-1.2-0.6-2.5-1.2-3.7-1.6l-0.1-0.5l-1.9-5.8l0-0.1h-0.4L26.3,0h-0.3l0,0.1l-2,5.7l-0.2,0.5
		c-1.3,0.4-2.5,0.9-3.8,1.5l-0.4-0.2l-5.4-2.7l-0.1,0l-0.3,0.2l-8.5,8.4l-0.3,0.3l0,0.1l2.6,5.4L8,19.6c-0.6,1.2-1.2,2.5-1.6,3.7
		l-0.5,0.2l-5.8,1.9l-0.1,0v0.3L0,37.7v0.4l0.1,0l5.7,2l0.5,0.2c0.4,1.3,0.9,2.5,1.5,3.8l-0.2,0.5l-2.7,5.4l0,0.1L5,50.1l8.4,8.5
		l0.2,0.2l0.1,0l5.4-2.7l0.5-0.2c1.2,0.6,2.5,1.2,3.7,1.6l0.2,0.5l1.9,5.8l0,0.1h0.3L37.7,64h0.4l0-0.1l2-5.7l0.2-0.5
		c1.3-0.4,2.5-0.9,3.8-1.5l0.4,0.2l5.4,2.8l0.1,0l0.2-0.2l8.5-8.4l0.2-0.2l0-0.1l-2.7-5.5L56,44.4c0.6-1.2,1.2-2.5,1.6-3.7l0.5-0.2
		l5.8-1.9l0.1,0v-0.4L64,26.3L63.9,25.9L63.9,25.9z M62,37.1l-3.3,1.1L56,39.1l-0.2,0.5c-0.5,1.5-1.1,2.9-1.8,4.3l-0.2,0.4l1.2,2.5
		l1.5,3.1l-7,6.9l-3.1-1.6L44,54l-0.4,0.2c-1.4,0.7-2.9,1.3-4.3,1.8l-0.5,0.1l-0.9,2.6L36.7,62L26.9,62l-1.1-3.3L24.9,56l-0.5-0.1
		c-1.5-0.5-2.9-1.1-4.3-1.8l-0.4-0.2L17.2,55l-3.1,1.5l-6.9-7l1.5-3.1L10,44l-0.2-0.4C9,42.1,8.4,40.7,8,39.2l-0.1-0.5l-2.6-0.9
		L2,36.7L2,26.9l3.3-1.1L8,24.9l0.1-0.5c0.5-1.5,1.1-2.9,1.8-4.3l0.2-0.4L9,17.2l-1.5-3.1l7-6.9l3.1,1.6L20,10l0.4-0.2
		C21.9,9,23.3,8.4,24.8,8l0.5-0.1l0.9-2.6L27.3,2L37.1,2l1.1,3.3l0.9,2.6l0.5,0.2c1.5,0.5,2.9,1.1,4.3,1.8l0.4,0.2L46.8,9l3.1-1.5
		l6.9,7l-1.6,3.1L54,20l0.2,0.4c0.7,1.4,1.3,2.9,1.8,4.3l0.2,0.5l2.6,0.9l3.3,1.1L62,37.1z"></path>
</svg>
